<?xml version="1.0" encoding="utf-8"?>
<!-- Generator: Adobe Illustrator 26.0.0, SVG Export Plug-In . SVG Version: 6.00 Build 0)  -->
<svg version="1.1" id="Layer_1" xmlns="http://www.w3.org/2000/svg" xmlns:xlink="http://www.w3.org/1999/xlink" x="0px" y="0px"
	 viewBox="0 0 856 271" style="enable-background:new 0 0 856 271;" xml:space="preserve">
<style type="text/css">
	.st0{fill:#C4DFE6;}
	.st1{fill:none;stroke:#000000;stroke-width:2;stroke-miterlimit:10;}
	.st2{fill:#003B46;}
	.st3{fill:#66A5AD;}
</style>
<path class="st0" d="M255.6,62.1h16.52l21.45,63.74h0.21l19.15-57.17c1.31-3.92,4.99-6.57,9.13-6.57h9.59v82.86h-12.44V82.15H319
	l-20.27,62.81h-10.19l-20.27-62.81h-0.21v62.81H255.6V62.1z"/>
<path class="st0" d="M362,125.38l-6.22,19.59h-12.98l28.21-82.86h13.41l28.11,82.86h-12.98l-6.22-19.59H362z M389.89,113.91
	l-12.01-39.17h-0.21l-12.12,39.17H389.89z"/>
<path class="st0" d="M471.24,73.81H428.3l3.59,1.99c3.07,1.7,4.96,4.92,4.96,8.42v60.74h-12.76V71.74c0-5.32,4.31-9.63,9.63-9.63
	h37.52V73.81z"/>
<path class="st0" d="M772.86,183.44h-42.94l3.59,1.99c3.07,1.7,4.96,4.92,4.96,8.42v60.74h-12.76v-73.22c0-5.32,4.31-9.63,9.63-9.63
	h37.52V183.44z"/>
<path class="st0" d="M192.91,171.73l19.47,67.79h0.11l17.47-60.82c1.18-4.13,4.96-6.97,9.25-6.97h6.23l-26.1,82.86h-13.8
	l-26.1-82.86H192.91z"/>
<path class="st0" d="M245.96,211.37c0-24.92,14.44-43.11,37.54-43.11c23,0,37.54,18.19,37.54,43.11s-14.55,43.23-37.54,43.23
	C260.4,254.59,245.96,236.28,245.96,211.37z M308.32,211.37c0-16.69-7.27-31.29-24.82-31.29c-17.54,0-24.92,14.6-24.92,31.29
	c0,16.8,7.38,31.41,24.92,31.41C301.04,242.77,308.32,228.17,308.32,211.37z"/>
<path class="st0" d="M343.93,171.73v60.82c0,3.56-1.96,6.83-5.1,8.5l-3.45,1.84h46.74v11.7H331.2v-82.86H343.93z"/>
<path class="st0" d="M418.05,254.59c-21.29,0-30.16-11.94-30.16-30.01v-54.58h12.73v54.58c0,12.52,5.78,18.19,17.43,18.19
	c11.77,0,17.54-5.68,17.54-18.19v-54.58h12.62v54.58C448.22,242.65,439.34,254.59,418.05,254.59z"/>
<path class="st0" d="M460.3,171.73h14.23l34.44,62.23h0.21v-62.23h12.73v82.86h-14.12l-34.55-62h-0.21v62H460.3V171.73z"/>
<path class="st0" d="M643.2,205.92v11.82h-31.98v25.15h38.29v11.7h-51.02v-82.86h49.95v11.7h-45.78l3.51,1.9
	c3.11,1.68,5.05,4.93,5.05,8.47v12.12H643.2z"/>
<path class="st0" d="M707.38,205.92v11.82h-31.98v25.15h38.29v11.7h-51.02v-82.86h49.95v11.7h-45.78l3.51,1.9
	c3.11,1.68,5.05,4.93,5.05,8.47v12.12H707.38z"/>
<text transform="matrix(1 0 0 1 -983.1465 -504.7803)" style="font-family:'NeueMontreal-Medium'; font-size:100px;">SMART VOLUNTEERS</text>
<path class="st0" d="M514.47,132.12v12.83h-27.94c-5.32,0-9.63-4.31-9.63-9.63V73.81h0.03v-3.82h-0.03V24h12.83v38.11h24.39v11.7
	h-33.02l3.59,1.99c3.06,1.7,4.96,4.92,4.96,8.42v47.9H514.47z"/>
<path class="st0" d="M578.65,241.76v12.83h-27.94c-5.32,0-9.63-4.31-9.63-9.63v-61.52h0.03v-3.82h-0.03v-45.99h12.83v38.11h24.39
	v11.7h-33.02l3.59,1.99c3.06,1.7,4.96,4.92,4.96,8.42v47.9H578.65z"/>
<line class="st1" x1="-82" y1="-312" x2="-82" y2="-308"/>
<path class="st0" d="M143.23,93.56c0-9.85,0-19.71,0-29.56c-29.86,0-59.71,0-89.57,0C41.2,76.47,28.73,88.94,16.26,101.41
	c0,19.55,0,39.09,0,58.64c10.62,0,21.24,0,31.87,0c0-14.47,0-28.93,0-43.4c7.08-7.39,14.16-14.77,21.24-22.16
	C93.98,94.18,118.61,93.87,143.23,93.56z"/>
<path class="st0" d="M16.26,227.44c0,9.85,0,19.71,0,29.56c29.86,0,59.71,0,89.57,0c12.47-12.47,24.94-24.94,37.41-37.41
	c0-19.55,0-39.09,0-58.64c-10.62,0-21.24,0-31.87,0c0,14.47,0,28.93,0,43.4c-7.08,7.39-14.16,14.77-21.24,22.16
	C65.5,226.82,40.88,227.13,16.26,227.44z"/>
<path class="st0" d="M194.3,83.62v10.33h32.63c4.97,0,9,4.03,9,9v4.14h0.1v22.52l-12.53,12.53c-1.81,1.81-4.25,2.82-6.81,2.82
	h-34.31v-11.9c10.8-0.14,32.48-0.4,32.48-0.4l9.32-8.66v-13.51v-5.7h-41.73V79.08l12.49-13.36c1.82-1.95,4.37-3.05,7.03-3.05h34.12
	v10.83c-10.8,0.14-32.48,0.41-32.48,0.41L194.3,83.62z"/>
<path class="st0" d="M792.19,192.72v10.33h32.63c4.97,0,9,4.03,9,9v4.14h0.1v22.52l-12.53,12.53c-1.81,1.81-4.25,2.82-6.81,2.82
	h-35.31v-11.9c10.8-0.14,33.48-0.4,33.48-0.4l9.32-8.66v-19.21h-41.73v-25.71l12.49-13.36c1.82-1.95,4.37-3.05,7.03-3.05H834v10.83
	c-10.8,0.14-32.48,0.41-32.48,0.41L792.19,192.72z"/>
<path class="st2" d="M86.42,121.26c10.86,0,21.72,0,32.58,0c-14.81,25.85-29.62,51.71-44.43,77.56c-11.19,0-22.38,0-33.57,0
	C56.14,172.97,71.28,147.12,86.42,121.26z"/>
<rect x="-810" y="-308" width="72" height="72"/>
<rect x="-723" y="-308" class="st2" width="72" height="72"/>
<rect x="-636" y="-308" class="st3" width="72" height="72"/>
<rect x="-549" y="-308" class="st0" width="72" height="72"/>
</svg>
