<?xml version="1.0" encoding="utf-8"?>
<!-- Generator: Adobe Illustrator 27.5.0, SVG Export Plug-In . SVG Version: 6.00 Build 0)  -->
<svg version="1.1" id="Layer_1" xmlns="http://www.w3.org/2000/svg" xmlns:xlink="http://www.w3.org/1999/xlink" x="0px" y="0px"
	 viewBox="0 0 128 128" style="enable-background:new 0 0 128 128;" xml:space="preserve">
<style type="text/css">
	.st0{fill:#003B46;}
	.st1{fill:#C4DFE6;}
	.st2{fill:#66A5AD;}
</style>
<path class="st1" d="M105.78,19.95c0-6.48,0-12.97,0-19.45c-19.65,0-39.29,0-58.94,0c-8.2,8.2-16.41,16.41-24.61,24.61
	c0,12.86,0,25.72,0,38.59c6.99,0,13.98,0,20.97,0c0-9.52,0-19.04,0-28.56c4.66-4.86,9.32-9.72,13.97-14.58
	C73.37,20.36,89.57,20.16,105.78,19.95z"/>
<path class="st1" d="M22.22,108.05c0,6.48,0,12.97,0,19.45c19.65,0,39.29,0,58.94,0c8.2-8.2,16.41-16.41,24.61-24.61
	c0-12.86,0-25.72,0-38.59c-6.99,0-13.98,0-20.97,0c0,9.52,0,19.04,0,28.56c-4.66,4.86-9.32,9.72-13.97,14.58
	C54.63,107.64,38.43,107.84,22.22,108.05z"/>
<path class="st2" d="M68.39,38.18c7.15,0,14.29,0,21.44,0c-9.75,17.01-19.49,34.03-29.24,51.04c-7.36,0-14.73,0-22.09,0
	C48.47,72.21,58.43,55.19,68.39,38.18z"/>
</svg>
