<?xml version="1.0" encoding="utf-8"?>
<!-- Generator: Adobe Illustrator 26.0.0, SVG Export Plug-In . SVG Version: 6.00 Build 0)  -->
<svg version="1.1" id="Layer_1" xmlns="http://www.w3.org/2000/svg" xmlns:xlink="http://www.w3.org/1999/xlink" x="0px" y="0px"
	 viewBox="0 0 407 358" style="enable-background:new 0 0 407 358;" xml:space="preserve">
<style type="text/css">
	.st0{fill:#C4DFE6;}
	.st1{fill:#66A5AD;}
</style>
<path class="st0" d="M263.15,99.96c0-9.85,0-19.71,0-29.56c-29.86,0-59.71,0-89.57,0c-12.47,12.47-24.94,24.94-37.41,37.41
	c0,19.55,0,39.09,0,58.64c10.62,0,21.24,0,31.87,0c0-14.47,0-28.93,0-43.4c7.08-7.39,14.16-14.77,21.24-22.16
	C213.9,100.58,238.52,100.27,263.15,99.96z"/>
<path class="st0" d="M136.17,233.84c0,9.85,0,19.71,0,29.56c29.86,0,59.71,0,89.57,0c12.47-12.47,24.94-24.94,37.41-37.41
	c0-19.55,0-39.09,0-58.64c-10.62,0-21.24,0-31.87,0c0,14.47,0,28.93,0,43.4c-7.08,7.39-14.16,14.77-21.24,22.16
	C185.42,233.23,160.79,233.53,136.17,233.84z"/>
<path class="st1" d="M206.33,127.67c10.86,0,21.72,0,32.58,0c-14.81,25.85-29.62,51.71-44.43,77.56c-11.19,0-22.38,0-33.57,0
	C176.05,179.37,191.19,153.52,206.33,127.67z"/>
</svg>
