<?xml version="1.0" encoding="utf-8"?>
<!-- Generator: Adobe Illustrator 27.5.0, SVG Export Plug-In . SVG Version: 6.00 Build 0)  -->
<svg version="1.1" id="Layer_1" xmlns="http://www.w3.org/2000/svg" xmlns:xlink="http://www.w3.org/1999/xlink" x="0px" y="0px"
	 viewBox="0 0 818 233" style="enable-background:new 0 0 818 233;" xml:space="preserve">
<style type="text/css">
	.st0{fill:#003B46;}
	.st1{fill:#C4DFE6;}
	.st2{fill:#66A5AD;}
</style>
<path class="st0" d="M239.6,38.1h16.52l21.45,63.74h0.21l19.15-57.17c1.31-3.92,4.99-6.57,9.13-6.57h9.59v82.86h-12.44V58.15H303
	l-20.27,62.81h-10.19l-20.27-62.81h-0.21v62.81H239.6V38.1z"/>
<path class="st0" d="M346,101.38l-6.22,19.59h-12.98l28.21-82.86h13.41l28.11,82.86h-12.98l-6.22-19.59H346z M373.89,89.91
	l-12.01-39.17h-0.21l-12.12,39.17H373.89z"/>
<path class="st0" d="M455.24,49.81H412.3l3.59,1.99c3.07,1.7,4.96,4.92,4.96,8.42v60.74h-12.76V47.74c0-5.32,4.31-9.63,9.63-9.63
	h37.52V49.81z"/>
<path class="st0" d="M756.86,159.44h-42.94l3.59,1.99c3.07,1.7,4.96,4.92,4.96,8.42v60.74h-12.76v-73.22c0-5.32,4.31-9.63,9.63-9.63
	h37.52V159.44z"/>
<path class="st0" d="M176.91,147.73l19.47,67.79h0.11l17.47-60.82c1.18-4.13,4.96-6.97,9.25-6.97h6.23l-26.1,82.86h-13.8
	l-26.1-82.86H176.91z"/>
<path class="st0" d="M229.96,187.37c0-24.92,14.44-43.11,37.54-43.11c23,0,37.54,18.19,37.54,43.11s-14.55,43.23-37.54,43.23
	C244.4,230.59,229.96,212.28,229.96,187.37z M292.32,187.37c0-16.69-7.27-31.29-24.82-31.29c-17.54,0-24.92,14.6-24.92,31.29
	c0,16.8,7.38,31.41,24.92,31.41C285.04,218.77,292.32,204.17,292.32,187.37z"/>
<path class="st0" d="M327.93,147.73v60.82c0,3.56-1.96,6.83-5.1,8.5l-3.45,1.84h46.74v11.7H315.2v-82.86H327.93z"/>
<path class="st0" d="M402.05,230.59c-21.29,0-30.16-11.94-30.16-30.01v-54.58h12.73v54.58c0,12.52,5.78,18.19,17.43,18.19
	c11.77,0,17.54-5.68,17.54-18.19v-54.58h12.62v54.58C432.22,218.65,423.34,230.59,402.05,230.59z"/>
<path class="st0" d="M444.3,147.73h14.23l34.44,62.23h0.21v-62.23h12.73v82.86h-14.12l-34.55-62h-0.21v62H444.3V147.73z"/>
<path class="st0" d="M627.2,181.92v11.82h-31.98v25.15h38.29v11.7h-51.02v-82.86h49.95v11.7h-45.78l3.51,1.9
	c3.11,1.68,5.05,4.93,5.05,8.47v12.12H627.2z"/>
<path class="st0" d="M691.38,181.92v11.82h-31.98v25.15h38.29v11.7h-51.02v-82.86h49.95v11.7h-45.78l3.51,1.9
	c3.11,1.68,5.05,4.93,5.05,8.47v12.12H691.38z"/>
<text transform="matrix(1 0 0 1 -999.1465 -528.7803)" style="font-family:'NeueMontreal-Medium'; font-size:100px;">SMART VOLUNTEERS</text>
<path class="st0" d="M498.47,108.12v12.83h-27.94c-5.32,0-9.63-4.31-9.63-9.63V49.81h0.03v-3.82h-0.03V0h12.83v38.11h24.39v11.7
	h-33.02l3.59,1.99c3.06,1.7,4.96,4.92,4.96,8.42v47.9H498.47z"/>
<path class="st0" d="M562.65,217.76v12.83h-27.94c-5.32,0-9.63-4.31-9.63-9.63v-61.52h0.03v-3.82h-0.03v-45.99h12.83v38.11h24.39
	v11.7h-33.02l3.59,1.99c3.06,1.7,4.96,4.92,4.96,8.42v47.9H562.65z"/>
<path class="st1" d="M127.23,69.56c0-9.85,0-19.71,0-29.56c-29.86,0-59.71,0-89.57,0C25.2,52.47,12.73,64.94,0.26,77.41
	c0,19.55,0,39.09,0,58.64c10.62,0,21.24,0,31.87,0c0-14.47,0-28.93,0-43.4c7.08-7.39,14.16-14.77,21.24-22.16
	C77.98,70.18,102.61,69.87,127.23,69.56z"/>
<path class="st1" d="M0.26,203.44c0,9.85,0,19.71,0,29.56c29.86,0,59.71,0,89.57,0c12.47-12.47,24.94-24.94,37.41-37.41
	c0-19.55,0-39.09,0-58.64c-10.62,0-21.24,0-31.87,0c0,14.47,0,28.93,0,43.4c-7.08,7.39-14.16,14.77-21.24,22.16
	C49.5,202.82,24.88,203.13,0.26,203.44z"/>
<path class="st0" d="M178.3,59.62v10.33h32.63c4.97,0,9,4.03,9,9v4.14h0.1v22.52l-12.53,12.53c-1.81,1.81-4.25,2.82-6.81,2.82
	h-34.31v-11.9c10.8-0.14,32.48-0.4,32.48-0.4l9.32-8.66V86.49v-5.7h-41.73V55.08l12.49-13.36c1.82-1.95,4.37-3.05,7.03-3.05h34.12
	v10.83c-10.8,0.14-32.48,0.41-32.48,0.41L178.3,59.62z"/>
<path class="st0" d="M776.19,168.72v10.33h32.63c4.97,0,9,4.03,9,9v4.14h0.1v22.52l-12.53,12.53c-1.81,1.81-4.25,2.82-6.81,2.82
	h-35.31v-11.9c10.8-0.14,33.48-0.4,33.48-0.4l9.32-8.66v-19.21h-41.73v-25.71l12.49-13.36c1.82-1.95,4.37-3.05,7.03-3.05H818v10.83
	c-10.8,0.14-32.48,0.41-32.48,0.41L776.19,168.72z"/>
<path class="st0" d="M70.42,97.26c10.86,0,21.72,0,32.58,0c-14.81,25.85-29.62,51.71-44.43,77.56c-11.19,0-22.38,0-33.57,0
	C40.14,148.97,55.28,123.12,70.42,97.26z"/>
<rect x="-826" y="-332" width="72" height="72"/>
<rect x="-739" y="-332" class="st0" width="72" height="72"/>
<rect x="-652" y="-332" class="st2" width="72" height="72"/>
<rect x="-565" y="-332" class="st1" width="72" height="72"/>
</svg>
